<svg preserveAspectRatio="none" overflow="visible" style="display: block;" width="1288" height="505" viewBox="0 0 1288 505" fill="none" xmlns="http://www.w3.org/2000/svg">
<g id="Group 6">
<rect id="Rectangle 1" width="1288" height="505" rx="28" fill="url(#paint0_linear_0_4)"/>
<g id="Vector">
<path d="M1280.73 6.99977C1280.73 55.5345 1261.45 102.081 1227.13 136.4C1192.81 170.719 1146.27 190 1097.73 190C1097.73 141.465 1117.01 94.9185 1151.33 60.5993C1185.65 26.2801 1232.2 6.99977 1280.73 6.99977Z" fill="url(#paint1_linear_0_4)"/>
<path d="M1098 189.733C1098 238.267 1078.72 284.815 1044.4 319.134C1010.08 353.453 963.535 372.733 915 372.733C915 324.199 934.28 277.652 968.599 243.333C1002.92 209.014 1049.47 189.733 1098 189.733Z" fill="url(#paint2_linear_0_4)"/>
<path d="M915 6.99976C963.535 6.99976 1010.08 26.2801 1044.4 60.5993C1078.72 94.9185 1098 141.465 1098 190C1049.47 190 1002.92 170.72 968.6 136.4C934.281 102.081 915 55.5344 915 6.99976Z" fill="url(#paint3_linear_0_4)"/>
<path d="M1098 190C1146.53 190 1193.08 209.28 1227.4 243.599C1261.72 277.918 1281 324.465 1281 373C1232.47 373 1185.92 353.719 1151.6 319.4C1117.28 285.081 1098 238.535 1098 190Z" fill="url(#paint4_linear_0_4)"/>
</g>
</g>
<defs>
<linearGradient id="paint0_linear_0_4" x1="1288" y1="132.79" x2="693.594" y2="905.652" gradientUnits="userSpaceOnUse">
<stop stop-color="#FF9C07"/>
<stop offset="0.5625" stop-color="#FFBB2A"/>
</linearGradient>
<linearGradient id="paint1_linear_0_4" x1="763.436" y1="571.156" x2="1188.9" y2="40.5526" gradientUnits="userSpaceOnUse">
<stop offset="0.52751" stop-color="#FC9508"/>
<stop offset="0.867866" stop-color="#FEBD26"/>
</linearGradient>
<linearGradient id="paint2_linear_0_4" x1="763.436" y1="571.156" x2="1188.9" y2="40.5526" gradientUnits="userSpaceOnUse">
<stop offset="0.52751" stop-color="#FC9508"/>
<stop offset="0.867866" stop-color="#FEBD26"/>
</linearGradient>
<linearGradient id="paint3_linear_0_4" x1="763.436" y1="571.156" x2="1188.9" y2="40.5526" gradientUnits="userSpaceOnUse">
<stop offset="0.52751" stop-color="#FC9508"/>
<stop offset="0.867866" stop-color="#FEBD26"/>
</linearGradient>
<linearGradient id="paint4_linear_0_4" x1="763.436" y1="571.156" x2="1188.9" y2="40.5526" gradientUnits="userSpaceOnUse">
<stop offset="0.52751" stop-color="#FC9508"/>
<stop offset="0.867866" stop-color="#FEBD26"/>
</linearGradient>
</defs>
</svg>
